<svg width="15" height="15" viewBox="0 0 15 15" fill="none" xmlns="http://www.w3.org/2000/svg">
<path fill-rule="evenodd" clip-rule="evenodd" d="M14.7159 1.65582C14.806 1.56587 14.8774 1.45905 14.9262 1.34147C14.975 1.22389 15.0002 1.09785 15.0002 0.970555C15.0003 0.843257 14.9753 0.717189 14.9267 0.599551C14.878 0.481912 14.8067 0.375006 14.7167 0.284937C14.6268 0.194868 14.52 0.1234 14.4024 0.0746123C14.2848 0.0258249 14.1588 0.000674075 14.0315 0.000595834C13.9042 0.000517593 13.7781 0.0255134 13.6605 0.0741562C13.5428 0.122799 13.4359 0.194136 13.3459 0.284094L7.5 6.12995L1.65582 0.284094C1.47392 0.102192 1.22721 -1.91666e-09 0.969959 0C0.71271 1.91666e-09 0.465997 0.102192 0.284094 0.284094C0.102192 0.465997 1.91666e-09 0.71271 0 0.969959C-1.91666e-09 1.22721 0.102192 1.47392 0.284094 1.65582L6.12995 7.5L0.284094 13.3442C0.194025 13.4342 0.122579 13.5412 0.0738336 13.6589C0.0250886 13.7765 0 13.9027 0 14.03C0 14.1574 0.0250886 14.2835 0.0738336 14.4012C0.122579 14.5189 0.194025 14.6258 0.284094 14.7159C0.465997 14.8978 0.71271 15 0.969959 15C1.09734 15 1.22347 14.9749 1.34115 14.9262C1.45883 14.8774 1.56576 14.806 1.65582 14.7159L7.5 8.87004L13.3459 14.7159C13.5278 14.8976 13.7744 14.9996 14.0315 14.9994C14.2886 14.9992 14.5351 14.897 14.7167 14.7151C14.8984 14.5332 15.0004 14.2865 15.0002 14.0294C15.0001 13.7724 14.8978 13.5259 14.7159 13.3442L8.87004 7.5L14.7159 1.65582Z" fill="#F45050"/>
</svg>
