<svg width="22" height="23" viewBox="0 0 22 23" fill="none" xmlns="http://www.w3.org/2000/svg">
<path fill-rule="evenodd" clip-rule="evenodd" d="M6.11111 5.11111C6.11111 3.75556 6.62619 2.45553 7.54303 1.49701C8.45988 0.53849 9.70339 0 11 0C12.2966 0 13.5401 0.53849 14.457 1.49701C15.3738 2.45553 15.8889 3.75556 15.8889 5.11111C15.8889 6.46666 15.3738 7.76669 14.457 8.72521C13.5401 9.68373 12.2966 10.2222 11 10.2222C9.70339 10.2222 8.45988 9.68373 7.54303 8.72521C6.62619 7.76669 6.11111 6.46666 6.11111 5.11111ZM6.11111 12.7778C4.49034 12.7778 2.93596 13.4509 1.7899 14.649C0.643847 15.8472 0 17.4722 0 19.1667C0 20.1833 0.386309 21.1584 1.07394 21.8772C1.76158 22.5961 2.69421 23 3.66667 23H18.3333C19.3058 23 20.2384 22.5961 20.9261 21.8772C21.6137 21.1584 22 20.1833 22 19.1667C22 17.4722 21.3562 15.8472 20.2101 14.649C19.064 13.4509 17.5097 12.7778 15.8889 12.7778H6.11111Z" fill="black" fill-opacity="0.46"/>
</svg>
